HIERARCHY
ROOT Hips
{
    OFFSET 0.000000 0.000000 0.000000
    CHANNELS 6 Xposition Yposition Zposition Zrotation Xrotation Yrotation
    JOINT Spine
    {
        OFFSET -0.000000 14.517291 0.000000
        CHANNELS 3 Zrotation Xrotation Yrotation
        JOINT Spine1
        {
            OFFSET -0.000000 37.558300 0.000000
            CHANNELS 3 Zrotation Xrotation Yrotation
            JOINT Neck
            {
                OFFSET -0.000000 37.404057 3.400369
                CHANNELS 3 Zrotation Xrotation Yrotation
                JOINT Head
                {
                    OFFSET -0.000000 24.785618 -3.540803
                    CHANNELS 3 Zrotation Xrotation Yrotation
                    End Site
                    {
                        OFFSET -0.000000 35.408028 0.000000
                    }
                }
            }
            JOINT LeftShoulder
            {
                OFFSET 6.992933 33.973492 -0.192664
                CHANNELS 3 Zrotation Xrotation Yrotation
                JOINT LeftArm
                {
                    OFFSET 21.527611 0.000000 0.000000
                    CHANNELS 3 Zrotation Xrotation Yrotation
                    JOINT LeftForeArm
                    {
                        OFFSET 56.353916 0.000000 0.000000
                        CHANNELS 3 Zrotation Xrotation Yrotation
                        JOINT LeftHand
                        {
                            OFFSET 47.774071 0.000000 0.000000
                            CHANNELS 3 Zrotation Xrotation Yrotation
                            End Site
                            {
                                OFFSET 26.556021 0.000000 0.000000
                            }
                        }
                    }
                }
            }
            JOINT RightShoulder
            {
                OFFSET -7.065357 33.973492 -0.192664
                CHANNELS 3 Zrotation Xrotation Yrotation
                JOINT RightArm
                {
                    OFFSET -21.527611 0.000000 0.000000
                    CHANNELS 3 Zrotation Xrotation Yrotation
                    JOINT RightForeArm
                    {
                        OFFSET -56.353916 0.000000 0.000000
                        CHANNELS 3 Zrotation Xrotation Yrotation
                        JOINT RightHand
                        {
                            OFFSET -47.774071 0.000000 0.000000
                            CHANNELS 3 Zrotation Xrotation Yrotation
                            End Site
                            {
                                OFFSET -26.556021 0.000000 0.000000
                            }
                        }
                    }
                }
            }
        }
    }
    JOINT LeftUpLeg
    {
        OFFSET 17.704014 0.000000 0.000000
        CHANNELS 3 Zrotation Xrotation Yrotation
        JOINT LeftLeg
        {
            OFFSET -0.000000 -81.181816 0.000000
            CHANNELS 3 Zrotation Xrotation Yrotation
            JOINT LeftFoot
            {
                OFFSET -0.000000 -62.821102 0.000000
                CHANNELS 3 Zrotation Xrotation Yrotation
                JOINT LeftToeBase
                {
                    OFFSET -0.000000 -11.507608 26.556021
                    CHANNELS 3 Zrotation Xrotation Yrotation
                    End Site
                    {
                        OFFSET -0.000000 0.000000 7.081605
                    }
                }
            }
        }
    }
    JOINT RightUpLeg
    {
        OFFSET -17.704014 0.000000 0.000000
        CHANNELS 3 Zrotation Xrotation Yrotation
        JOINT RightLeg
        {
            OFFSET -0.000000 -81.181816 0.000000
            CHANNELS 3 Zrotation Xrotation Yrotation
            JOINT RightFoot
            {
                OFFSET -0.000000 -62.821102 0.000000
                CHANNELS 3 Zrotation Xrotation Yrotation
                JOINT RightToeBase
                {
                    OFFSET -0.000000 -11.507608 26.556021
                    CHANNELS 3 Zrotation Xrotation Yrotation
                    End Site
                    {
                        OFFSET -0.000000 0.000000 7.081605
                    }
                }
            }
        }
    }
}
MOTION
Frames:    10
Frame Time:    0.008333
24.507973    155.788803    -35.231827    1.150465    -1.657670    -44.125832    2.891646    -0.412824    3.538116    1.751806    -1.789024    1.203519    13.818360    3.168252    13.572354    -10.391864    7.259632    11.654541    10.035177    -2.475848    -13.717757    -10.118451    -10.045741    -23.230215    26.280729    -43.212830    6.258216    -14.278071    -41.514248    -29.363007    -7.170157    4.841969    -0.294243    34.634033    9.457372    79.623367    3.824538    -6.888319    101.299698    11.865455    -8.943410    24.573425    17.120504    -19.247408    4.499592    -12.299634    19.969395    -3.723492    -8.256281    -0.475850    37.693382    0.000000    0.000000    0.000000    -16.224854    1.839537    -6.379239    6.953664    29.018511    -2.405802    5.123778    -22.744213    -17.224411    0.000000    0.000000    0.000000    
24.542669    155.775635    -35.239845    1.123867    -1.662032    -44.105026    2.872284    -0.419970    3.530343    1.758889    -1.769616    1.200667    13.821008    3.143173    13.561100    -10.359385    7.311336    11.646545    9.992477    -2.393630    -13.787307    -10.141600    -10.372887    -23.717133    26.005119    -43.210144    5.484396    -14.785116    -41.213951    -29.838783    -7.171343    4.812848    -0.301144    34.661400    9.467354    79.633690    3.828498    -6.862227    101.319214    11.857576    -8.929440    24.535007    17.135160    -19.261616    4.520936    -12.311088    20.009605    -3.755061    -8.219489    -0.468434    37.681938    0.000000    0.000000    0.000000    -16.220642    1.846093    -6.392120    6.967369    29.045364    -2.403170    5.104801    -22.749689    -17.236336    0.000000    0.000000    0.000000    
24.580101    155.760422    -35.250069    1.100401    -1.667227    -44.079632    2.845869    -0.428138    3.511734    1.770370    -1.746901    1.194244    13.821328    3.112741    13.569825    -10.321980    7.362351    11.659348    9.969244    -2.340936    -13.854796    -10.191650    -10.632612    -24.182671    25.662096    -43.126781    4.626292    -15.237789    -40.822205    -30.318645    -7.173701    4.798613    -0.306854    34.674652    9.465794    79.660881    3.825492    -6.856042    101.334297    11.841661    -8.929609    24.485151    17.148230    -19.279436    4.521608    -12.332355    20.046040    -3.768874    -8.205905    -0.475418    37.673595    0.000000    0.000000    0.000000    -16.217054    1.851493    -6.394584    6.980811    29.068840    -2.439644    5.113163    -22.758646    -17.222385    0.000000    0.000000    0.000000    
24.615881    155.743439    -35.257648    1.068154    -1.671350    -44.057625    2.836043    -0.426249    3.491367    1.756079    -1.740193    1.187151    13.828712    3.090884    13.563616    -10.270673    7.415349    11.657959    9.961373    -2.267394    -13.918024    -10.238824    -10.839936    -24.688822    25.400932    -43.116070    3.838001    -15.662964    -40.524220    -30.803226    -7.151875    4.796156    -0.310874    34.680046    9.463844    79.687157    3.811756    -6.858840    101.341766    11.825537    -8.919703    24.486219    17.167318    -19.289539    4.543919    -12.349703    20.085249    -3.777671    -8.164859    -0.482820    37.645687    0.000000    0.000000    0.000000    -16.209167    1.861771    -6.415162    6.986426    29.098658    -2.439746    5.107142    -22.769403    -17.215389    0.000000    0.000000    0.000000    
24.657595    155.726318    -35.267090    1.038027    -1.676518    -44.031040    2.825029    -0.421062    3.467621    1.739479    -1.733593    1.178907    13.844385    3.070365    13.553536    -10.238177    7.463550    11.649749    9.947304    -2.221934    -14.018044    -10.272754    -10.969504    -25.151728    25.172195    -43.197975    3.040888    -16.159655    -40.313248    -31.217941    -7.130672    4.789963    -0.322160    34.671085    9.473218    79.717728    3.791559    -6.887664    101.354080    11.835525    -8.918965    24.521961    17.181707    -19.309113    4.556757    -12.364131    20.133562    -3.800078    -8.145371    -0.494829    37.630978    0.000000    0.000000    0.000000    -16.206463    1.872818    -6.423844    7.004933    29.121103    -2.462324    5.114825    -22.782818    -17.202808    0.000000    0.000000    0.000000    
24.703312    155.707947    -35.279846    1.008208    -1.675261    -43.998608    2.818661    -0.411510    3.440217    1.716291    -1.727834    1.169450    13.891192    3.033046    13.544442    -10.252876    7.519171    11.633679    9.963528    -2.161593    -14.079622    -10.368587    -11.232988    -25.682840    24.852964    -43.278877    2.190061    -16.640186    -40.090698    -31.652296    -7.058080    4.804189    -0.375534    34.584766    9.473673    79.806458    3.750907    -6.965201    101.350853    11.868229    -8.935731    24.559546    17.200970    -19.337860    4.571948    -12.383187    20.183222    -3.804831    -8.132215    -0.513401    37.606693    0.000000    0.000000    0.000000    -16.198689    1.877561    -6.464122    7.009458    29.153217    -2.452205    5.112035    -22.799835    -17.197008    0.000000    0.000000    0.000000    
24.747120    155.689117    -35.292915    0.974649    -1.671299    -43.965355    2.801792    -0.421647    3.401725    1.740390    -1.696020    1.156393    13.893112    2.982442    13.542115    -10.243978    7.595897    11.632276    9.917536    -2.115637    -14.163560    -10.418271    -11.384933    -26.177500    24.590513    -43.390129    1.361069    -17.061880    -39.927517    -32.007229    -7.065475    4.796623    -0.402048    34.585499    9.478559    79.872833    3.740996    -6.987875    101.349174    11.853773    -8.948266    24.568750    17.221149    -19.369272    4.608523    -12.379377    20.247087    -3.866730    -8.105414    -0.519098    37.581623    0.000000    0.000000    0.000000    -16.188601    1.883441    -6.494912    7.028856    29.184961    -2.431613    5.092983    -22.810602    -17.217846    0.000000    0.000000    0.000000    
24.793165    155.671387    -35.303230    0.940591    -1.672751    -43.939606    2.783195    -0.423268    3.371466    1.756636    -1.672053    1.146181    13.915839    2.945079    13.546958    -10.249422    7.663243    11.635489    9.875629    -2.062331    -14.257597    -10.495029    -11.645366    -26.702576    24.270830    -43.461384    0.532792    -17.531471    -39.710403    -32.369678    -7.059790    4.781441    -0.431334    34.583557    9.497127    79.927483    3.725406    -7.027858    101.345581    11.847760    -8.969193    24.578983    17.235949    -19.390396    4.637983    -12.380951    20.299620    -3.870406    -8.081996    -0.525633    37.534187    0.000000    0.000000    0.000000    -16.185230    1.889220    -6.502712    7.061132    29.212957    -2.474711    5.091943    -22.813248    -17.201513    0.000000    0.000000    0.000000    
24.842171    155.651779    -35.316963    0.908138    -1.672520    -43.924854    2.773587    -0.420759    3.334839    1.748950    -1.652730    1.133614    13.928270    2.904062    13.548915    -10.211116    7.729225    11.639603    9.865572    -1.987904    -14.339531    -10.596910    -11.949255    -27.231518    23.872187    -43.496647    -0.365612    -17.897327    -39.470387    -32.715382    -7.048533    4.774868    -0.441234    34.602493    9.500980    79.977051    3.710999    -7.056363    101.334213    11.849456    -8.979136    24.576401    17.256876    -19.413582    4.679929    -12.388155    20.355232    -3.889827    -8.054090    -0.533939    37.512047    0.000000    0.000000    0.000000    -16.181875    1.881807    -6.504314    7.085351    29.259724    -2.468043    5.078080    -22.829933    -17.220606    0.000000    0.000000    0.000000    
24.892523    155.634766    -35.328049    0.876409    -1.673477    -43.913761    2.761324    -0.426825    3.298613    1.729679    -1.620553    1.120651    13.968085    2.856370    13.553617    -10.185800    7.801372    11.641856    9.881345    -1.911290    -14.430444    -10.698521    -12.148597    -27.753340    23.576260    -43.549591    -1.190669    -18.382927    -39.226009    -33.119606    -7.003100    4.752377    -0.439852    34.608028    9.491171    79.999832    3.703456    -7.079122    101.332031    11.858887    -8.993072    24.550390    17.277403    -19.438814    4.711054    -12.400306    20.418621    -3.905644    -8.011553    -0.540501    37.484539    0.000000    0.000000    0.000000    -16.183794    1.874407    -6.525446    7.104272    29.300922    -2.449851    5.071363    -22.836864    -17.224665    0.000000    0.000000    0.000000    
